<?xml version="1.0" encoding="utf-8"?>
<!-- Generator: Adobe Illustrator 21.1.0, SVG Export Plug-In . SVG Version: 6.00 Build 0)  -->
<svg version="1.1" id="Layer_1" xmlns="http://www.w3.org/2000/svg" xmlns:xlink="http://www.w3.org/1999/xlink" x="0px" y="0px"
	 viewBox="0 0 692.5 63.3" style="enable-background:new 0 0 692.5 63.3;" xml:space="preserve">
<style type="text/css">
	.st0{clip-path:url(#SVGID_2_);fill:#FFFFFF;}
</style>
<g>
	<defs>
		<rect id="SVGID_1_" width="692.5" height="63.3"/>
	</defs>
	<clipPath id="SVGID_2_">
		<use xlink:href="#SVGID_1_"  style="overflow:visible;"/>
	</clipPath>
	<path class="st0" d="M358.6,61.1h16.8V3.3H351l-21.6,44.3L307.8,3.3h-24.9v57.8h16.8V16.8l21.1,44.2h17.3l20.5-42.8V61.1z
		 M113.2,61.1h74.5V47.5H129v-9.3h57.7V26.1H129v-9.3h58.7V3.3h-74.5V61.1z M227,61.1h16.8V16.8h27.9V3.3H199v13.5H227V61.1z
		 M588.5,61.1h17.8V3.3h-17.8V61.1z M647.8,61.1h16.8V16.8h27.9V3.3h-72.7v13.5h27.9V61.1z M491,61.1h62.4
		c11.4,0,19.7-7.5,19.7-17.8c0-5-2.3-9.8-6.3-13.2l-0.2-0.1l0.1-0.2c1.6-2.7,2.4-5.6,2.4-8.6c0-9.5-8.9-17.8-19-17.8H491V61.1z
		 M553,48h-46.2v-9.8H553c2.7,0,4.9,2.2,4.9,4.9C557.9,45.8,555.7,48,553,48 M549.1,26.1h-42.3v-9.8h42.3c2.7,0,4.9,2.2,4.9,4.9
		C554,23.9,551.8,26.1,549.1,26.1 M464.6,8c-8.6-5.1-19.7-8-31.7-8s-23,2.8-31.7,8c-9.6,5.7-14.9,14.1-14.9,23.5
		c0,9.4,5.3,17.7,14.9,23.5c8.6,5.1,19.7,8,31.7,8c11.9,0,23-2.8,31.7-8c9.6-5.7,14.9-14.1,14.9-23.5C479.5,22,474.2,13.7,464.6,8
		 M432.9,49.3c-21.3,0-28.8-10.7-28.8-17.9c0-12.3,14.8-17.9,28.8-17.9c19.1,0,28.8,9,28.8,17.9C461.7,43.8,445,49.3,432.9,49.3
		 M97.5,28.8v32.3H85c0-5.3,0.4-9.7,0.4-9.8l0-0.6l-0.8,0.7c-9.5,7.9-22,11.9-37.2,11.9C10,63.3,0,43.5,0,31.9
		C0,21,10.1,0.4,48.5,0.4c24.1,0,41.3,9.9,40.8,9.5l-6.1,12.9c0,0-14.5-8.6-34.8-8.6c-22.6,0-30.7,9.5-30.7,17.6s7.1,17.6,29.6,17.6
		c11.7,0,22.2-3,28.6-8.2l0.5-0.4H61.9V28.8H97.5z"/>
</g>
</svg>
